<svg width="87" height="87" viewBox="0 0 87 87" fill="none" xmlns="http://www.w3.org/2000/svg">
<path d="M66.7036 0H20.2004C9.04401 0 0 9.044 0 20.2003V66.7036C0 77.86 9.04401 86.904 20.2004 86.904H66.7036C77.86 86.904 86.904 77.86 86.904 66.7036V20.2003C86.904 9.044 77.86 0 66.7036 0Z" fill="#015154"/>
<path d="M42.7855 29.0487C43.0343 28.6804 43.5344 28.5836 43.9026 28.8324L43.4525 29.4984C43.9026 28.8323 43.9031 28.8324 43.9036 28.8327C43.9037 28.8328 43.9041 28.8334 43.9045 28.8337C43.9053 28.8342 43.9063 28.8348 43.9073 28.8355C43.9095 28.837 43.9122 28.8389 43.9155 28.8412C43.9223 28.8459 43.9318 28.8522 43.9435 28.8604C43.9667 28.8767 43.9994 28.8999 44.0406 28.9298C44.1232 28.9899 44.2404 29.0775 44.3854 29.1917C44.6753 29.42 45.0777 29.7561 45.538 30.195C46.4566 31.0708 47.6192 32.3676 48.5807 34.0464C50.5236 37.439 51.6133 42.3529 48.3427 48.3437C45.2944 53.9272 44.6019 58.5771 44.6548 61.803C44.6813 63.4188 44.895 64.6837 45.0983 65.5359C45.2 65.962 45.2988 66.285 45.3705 66.4968C45.4063 66.6026 45.4354 66.6807 45.4544 66.73C45.4639 66.7546 45.471 66.7721 45.4752 66.7822C45.4771 66.787 45.4783 66.7902 45.4789 66.7916L45.5013 66.8498C45.6038 67.1503 45.52 67.4858 45.2828 67.7028C45.0298 67.9343 44.658 67.9799 44.3565 67.8166L32.7693 61.5402C32.3785 61.3285 32.2333 60.8403 32.4449 60.4495C32.6566 60.0588 33.1449 59.9136 33.5356 60.1251L43.439 65.4894C43.2454 64.5663 43.0701 63.3326 43.0455 61.8294C42.9881 58.3347 43.744 53.4089 46.9302 47.5726C49.8941 42.1437 48.8919 37.8279 47.1841 34.846C46.3202 33.3376 45.2676 32.1608 44.4275 31.3599C44.0086 30.9604 43.6455 30.6572 43.39 30.4559C43.2623 30.3553 43.1617 30.2804 43.0948 30.2318C43.0614 30.2075 43.0361 30.19 43.0203 30.179C43.0125 30.1735 43.0071 30.1695 43.004 30.1673C43.0024 30.1663 43.0012 30.1657 43.0008 30.1654H43.0011V30.1651C42.6335 29.9162 42.5369 29.4166 42.7855 29.0487Z" fill="white"/>
<path d="M53.2581 63.5872C53.608 63.5104 53.971 63.6751 54.1414 63.9968L56.8115 69.0404H65.0172C65.4617 69.0404 65.8219 69.4007 65.8219 69.8451C65.8219 70.2895 65.4617 70.6497 65.0172 70.6497H56.3268C56.0288 70.6497 55.7553 70.485 55.6159 70.2216L53.0324 65.3421L44.9814 67.8768C44.9032 67.9014 44.8216 67.9139 44.7397 67.9139H33.4655L27.9026 73.0131C27.575 73.3134 27.066 73.2913 26.7657 72.9638C26.4654 72.6362 26.4875 72.1272 26.8151 71.8269L32.6087 66.5161L32.6665 66.468C32.8058 66.3624 32.9763 66.3045 33.1525 66.3045H44.6158L53.1883 63.6057L53.2581 63.5872Z" fill="white"/>
<path d="M44.3627 66.3982C44.7554 66.1903 45.2423 66.34 45.4503 66.7326L48.3471 72.2044C48.5163 72.5241 48.4516 72.9175 48.1886 73.1659L45.2918 75.9018C44.9688 76.2069 44.4595 76.1924 44.1543 75.8694C43.8492 75.5463 43.8637 75.037 44.1867 74.7318L46.6384 72.4162L44.0283 67.4858C43.8204 67.093 43.97 66.6062 44.3627 66.3982Z" fill="white"/>
<path d="M32.2027 46.0988C34.0101 46.0443 36.4107 46.2621 38.6372 47.4064H38.6375C40.8657 48.551 42.4406 50.3767 43.4485 51.8783C43.9555 52.6336 44.3276 53.3196 44.5738 53.8189C44.6971 54.0688 44.7894 54.2729 44.8517 54.4167C44.8828 54.4886 44.9064 54.5457 44.9227 54.5858C44.9309 54.6059 44.9374 54.6219 44.9419 54.6333C44.9441 54.639 44.9459 54.6437 44.9472 54.6471C44.9479 54.6489 44.9483 54.6504 44.9488 54.6515C44.949 54.6521 44.9493 54.6527 44.9494 54.6531L44.9497 54.6537C44.9485 54.6545 44.918 54.6664 44.1988 54.9426L44.4009 55.7215L44.4003 55.7218C44.3998 55.7219 44.399 55.722 44.3984 55.7221C44.3972 55.7224 44.3958 55.7229 44.394 55.7234C44.3904 55.7243 44.3855 55.7253 44.3796 55.7268C44.3676 55.7298 44.351 55.7341 44.3299 55.7391C44.2878 55.7492 44.2276 55.7631 44.151 55.7796C43.9979 55.8127 43.7782 55.8564 43.5032 55.9016C42.9538 55.992 42.1793 56.0889 41.27 56.1163C39.4624 56.1708 37.0615 55.953 34.8348 54.8084C32.6084 53.6638 31.0336 51.8385 30.0254 50.3371C29.5182 49.5818 29.1456 48.8958 28.8992 48.3965C28.7758 48.1466 28.6836 47.9425 28.6213 47.7987C28.5901 47.7267 28.5663 47.6697 28.5499 47.6296C28.5418 47.6096 28.5356 47.5938 28.5311 47.5824C28.5288 47.5767 28.5268 47.5721 28.5254 47.5686C28.5248 47.5669 28.5243 47.5653 28.5239 47.5642C28.5236 47.5636 28.5234 47.563 28.5232 47.5626L28.5229 47.562C28.5228 47.5617 28.5228 47.5614 29.2738 47.2725C29.0751 46.5083 29.0715 46.4939 29.0717 46.4936H29.0723C29.0728 46.4935 29.0734 46.4931 29.0739 46.493C29.0751 46.4927 29.0768 46.4925 29.0786 46.492C29.0823 46.4911 29.0871 46.4898 29.0931 46.4883C29.105 46.4853 29.1217 46.4813 29.1428 46.4763C29.1849 46.4662 29.245 46.4523 29.3216 46.4358C29.4748 46.4027 29.6944 46.3587 29.9694 46.3135C30.5188 46.2231 31.2933 46.1262 32.2027 46.0988ZM44.9501 54.6541C45.0322 54.8679 45.0193 55.1069 44.9145 55.3107C44.8098 55.5144 44.6229 55.6638 44.4012 55.7215L44.1988 54.9426L44.9501 54.6541ZM32.2511 47.7075C31.5346 47.7291 30.9107 47.7984 30.4356 47.8694C30.6545 48.2971 30.9616 48.8449 31.3612 49.4401C32.2874 50.8193 33.6771 52.404 35.5703 53.3773C37.4635 54.3505 39.5608 54.5576 41.2212 54.5076C41.9379 54.486 42.5622 54.4168 43.0374 54.3457C42.8187 53.9181 42.5119 53.3702 42.1123 52.775C41.1866 51.3959 39.7971 49.8114 37.9023 48.8381L37.902 48.8378C36.0088 47.8646 33.9116 47.6574 32.2511 47.7075ZM29.2738 47.2725L28.5229 47.5614C28.4406 47.3475 28.4534 47.1086 28.5581 46.9047C28.6628 46.7009 28.8496 46.5516 29.0714 46.4939L29.2738 47.2725Z" fill="white"/>
<path d="M53.2475 44.9176C55.2366 44.4975 57.1566 44.8415 58.5476 45.2675C59.2484 45.4821 59.8294 45.722 60.2374 45.9093C60.4418 46.0031 60.6039 46.0841 60.7168 46.1429C60.7731 46.1722 60.8173 46.1961 60.8485 46.2133C60.8641 46.2218 60.8766 46.2286 60.8856 46.2337C60.8901 46.2362 60.8938 46.2384 60.8966 46.24C60.898 46.2408 60.8994 46.2416 60.9004 46.2422L60.9022 46.2431C60.9024 46.2434 60.8966 46.2537 60.5015 46.9409L61.1496 47.4181L61.149 47.4184C61.1487 47.4187 61.1487 47.4192 61.1484 47.4196C61.1477 47.4205 61.1468 47.4218 61.1458 47.4231C61.1439 47.4257 61.1414 47.4291 61.1383 47.4332C61.1321 47.4414 61.1233 47.4527 61.1125 47.4668C61.0909 47.4951 61.0599 47.535 61.0201 47.5847C60.9405 47.6839 60.8251 47.8235 60.6759 47.9917C60.3781 48.3277 59.9431 48.7817 59.3885 49.2609C58.2875 50.2123 56.6699 51.3026 54.6812 51.7227C52.6921 52.1429 50.7721 51.7988 49.381 51.3729C48.6803 51.1583 48.0993 50.9183 47.6913 50.731C47.4869 50.6372 47.3248 50.5562 47.2119 50.4975C47.1556 50.4681 47.1114 50.4442 47.0802 50.4271C47.0646 50.4185 47.0521 50.4117 47.0431 50.4066C47.0386 50.4041 47.0349 50.402 47.0321 50.4004C47.0307 50.3996 47.0293 50.399 47.0283 50.3985C47.0279 50.3982 47.0275 50.3978 47.0271 50.3975L47.0265 50.3972C47.0266 50.3965 47.0378 50.3767 47.4272 49.6994C46.7789 49.2228 46.7789 49.2225 46.7791 49.2223L46.7794 49.222C46.7797 49.2216 46.78 49.2211 46.7803 49.2207C46.781 49.2198 46.7819 49.2186 46.7829 49.2173C46.7848 49.2147 46.7873 49.2113 46.7904 49.2072C46.7966 49.1989 46.8053 49.1877 46.8162 49.1736C46.8378 49.1453 46.8685 49.1056 46.9083 49.056C46.9878 48.9567 47.1036 48.8172 47.2528 48.649C47.5506 48.3129 47.9856 47.8587 48.5402 47.3794C49.6412 46.4281 51.2588 45.3377 53.2475 44.9176ZM47.4272 49.6994L47.0261 50.3969C46.8276 50.2827 46.6871 50.0895 46.6398 49.8654C46.5926 49.6413 46.6431 49.4075 46.7788 49.2229L47.4272 49.6994ZM58.0765 46.8064C56.8266 46.4237 55.2026 46.1498 53.5804 46.4924C51.9579 46.8351 50.5821 47.742 49.5926 48.5971C49.2487 48.8942 48.9569 49.1805 48.7235 49.4263C49.036 49.5568 49.418 49.701 49.8522 49.834C51.1021 50.2167 52.7261 50.4906 54.3483 50.148C55.9708 49.8052 57.3466 48.8984 58.3361 48.0433C58.68 47.7461 58.9715 47.4595 59.2049 47.2138C58.8925 47.0832 58.5105 46.9393 58.0765 46.8064ZM60.9026 46.2434C61.1011 46.3576 61.2417 46.5511 61.2889 46.7753C61.336 46.9994 61.2856 47.2332 61.1499 47.4178L60.5015 46.9409L60.9026 46.2434Z" fill="white"/>
<path d="M30.8125 20.1489C33.6007 20.1489 36.0745 21.4055 37.809 22.604C38.6839 23.2086 39.3908 23.8125 39.8801 24.2659C40.1251 24.4929 40.3166 24.6835 40.4484 24.8188C40.5142 24.8864 40.5654 24.9401 40.6008 24.9781C40.6185 24.9971 40.6322 25.0123 40.642 25.0231C40.6469 25.0284 40.6507 25.0328 40.6536 25.036C40.655 25.0375 40.6565 25.0387 40.6574 25.0397C40.6579 25.0403 40.6583 25.0409 40.6586 25.0413L40.659 25.0416C40.6592 25.0418 40.6594 25.0422 40.0599 25.5788L40.659 26.1157L40.6586 26.1163C40.6583 26.1166 40.6578 26.1171 40.6574 26.1175C40.6564 26.1186 40.6551 26.12 40.6536 26.1216C40.6507 26.1248 40.6469 26.1292 40.642 26.1345C40.6322 26.1452 40.6185 26.1602 40.6008 26.1791C40.5654 26.2171 40.5143 26.2712 40.4484 26.3388C40.3166 26.4741 40.1251 26.6646 39.8801 26.8917C39.3908 27.3451 38.6838 27.9487 37.809 28.5532C36.0745 29.7518 33.6007 31.0087 30.8125 31.0087C30.3681 31.0087 30.0079 30.6484 30.0078 30.2041C30.0078 29.7596 30.3681 29.3994 30.8125 29.3994C33.1322 29.3994 35.2822 28.3433 36.8943 27.2293C37.6927 26.6776 38.3398 26.1249 38.7862 25.7111C38.8358 25.6652 38.8826 25.6207 38.927 25.5785C38.8826 25.5363 38.8357 25.492 38.7862 25.4461C38.3398 25.0324 37.6926 24.48 36.8943 23.9283C35.2822 22.8143 33.1322 21.7582 30.8125 21.7582C30.3681 21.7582 30.0078 21.3979 30.0078 20.9535C30.0078 20.5091 30.3681 20.1489 30.8125 20.1489ZM40.6593 25.0422C40.9327 25.3477 40.9327 25.8098 40.6593 26.1153L40.0599 25.5788L40.6593 25.0422Z" fill="white"/>
<path d="M25.3823 25.5788C25.3823 22.5784 27.8158 20.1489 30.8123 20.1489C31.2566 20.1489 31.6169 20.5091 31.6169 20.9535C31.6169 21.3979 31.2566 21.7582 30.8123 21.7582C28.7039 21.7582 26.9917 23.4679 26.9917 25.5788C26.9917 27.69 28.701 29.3994 30.8123 29.3994C31.2566 29.3994 31.6169 29.7597 31.6169 30.2041C31.6169 30.6484 31.2566 31.0087 30.8123 31.0087C27.8122 31.0087 25.3823 28.5788 25.3823 25.5788Z" fill="white"/>
<path d="M40.5964 26.1751C40.2909 26.4485 39.8288 26.4485 39.5233 26.1751L40.0598 25.5757L40.5964 26.1751ZM34.6299 16.3283C34.6299 15.8839 34.9901 15.5236 35.4345 15.5236C35.879 15.5236 36.2392 15.8839 36.2392 16.3283C36.2392 18.648 37.2953 20.7977 38.4093 22.4098C38.961 23.2082 39.5134 23.8555 39.9272 24.302C39.9731 24.3515 40.0173 24.3984 40.0595 24.4428C40.1017 24.3984 40.1462 24.3516 40.1921 24.302C40.606 23.8555 41.1586 23.2082 41.7103 22.4098C42.8243 20.7977 43.8804 18.648 43.8804 16.3283C43.8804 15.8839 44.2407 15.5236 44.6851 15.5236C45.1294 15.5237 45.4897 15.8839 45.4897 16.3283C45.4897 19.1165 44.2328 21.5903 43.0342 23.3248C42.4297 24.1996 41.8261 24.9066 41.3727 25.3959C41.1457 25.6409 40.9551 25.8324 40.8198 25.9642C40.7522 26.0301 40.6982 26.0812 40.6602 26.1166C40.6412 26.1343 40.6263 26.148 40.6155 26.1578C40.6102 26.1627 40.6058 26.1665 40.6026 26.1694C40.601 26.1709 40.5996 26.1723 40.5986 26.1732C40.5981 26.1736 40.5977 26.1741 40.5973 26.1745L40.5967 26.1748L40.0598 25.5757L39.5226 26.1748L39.5223 26.1745C39.5219 26.1741 39.5213 26.1737 39.5207 26.1732C39.5197 26.1723 39.5186 26.1709 39.517 26.1694C39.5138 26.1665 39.5094 26.1627 39.5041 26.1578C39.4934 26.148 39.4781 26.1343 39.4591 26.1166C39.4212 26.0812 39.3674 26.03 39.2998 25.9642C39.1645 25.8324 38.974 25.6409 38.7469 25.3959C38.2935 24.9066 37.6896 24.1997 37.0851 23.3248C35.8865 21.5903 34.6299 19.1165 34.6299 16.3283Z" fill="white"/>
<path d="M43.8804 16.3283C43.8804 14.22 42.1706 12.5077 40.0598 12.5077C37.9486 12.5077 36.2392 14.2171 36.2392 16.3283C36.2392 16.7727 35.8789 17.133 35.4345 17.133C34.9902 17.133 34.6299 16.7727 34.6299 16.3283C34.6299 13.3283 37.0598 10.8984 40.0598 10.8984C43.0602 10.8984 45.4897 13.3319 45.4897 16.3283C45.4897 16.7727 45.1294 17.1329 44.6851 17.133C44.2407 17.133 43.8804 16.7727 43.8804 16.3283Z" fill="white"/>
<path d="M49.3099 20.1456C49.7542 20.1457 50.1146 20.5059 50.1146 20.9503C50.1146 21.3947 49.7542 21.7549 49.3099 21.755C46.9901 21.755 44.8402 22.811 43.2281 23.925C42.4298 24.4767 41.7826 25.0291 41.3361 25.4429C41.2866 25.4888 41.2394 25.533 41.195 25.5752C41.2395 25.6175 41.2865 25.6619 41.3361 25.7079C41.7826 26.1217 42.4297 26.6744 43.2281 27.2261C44.8402 28.3401 46.9901 29.3962 49.3099 29.3962C49.7542 29.3962 50.1146 29.7565 50.1146 30.2008C50.1145 30.6451 49.7542 31.0054 49.3099 31.0055C46.5216 31.0055 44.0476 29.7486 42.3131 28.55C41.4382 27.9454 40.7312 27.3419 40.242 26.8885C39.997 26.6614 39.8058 26.4709 39.674 26.3356C39.6081 26.2679 39.557 26.2139 39.5216 26.1759C39.5039 26.1569 39.4899 26.142 39.4801 26.1313C39.4752 26.1259 39.4713 26.1216 39.4684 26.1184C39.467 26.1168 39.4659 26.1153 39.465 26.1143C39.4645 26.1138 39.4641 26.1134 39.4637 26.113L39.4634 26.1124L40.0625 25.5756C39.4629 25.0389 39.4632 25.0386 39.4634 25.0384L39.4637 25.0381C39.4641 25.0377 39.4645 25.037 39.465 25.0365C39.4659 25.0355 39.4671 25.0342 39.4684 25.0327C39.4713 25.0295 39.4752 25.0252 39.4801 25.0198C39.4899 25.0091 39.5039 24.9939 39.5216 24.9749C39.557 24.9369 39.6082 24.8831 39.674 24.8155C39.8057 24.6802 39.997 24.4897 40.242 24.2626C40.7312 23.8092 41.4382 23.2054 42.3131 22.6008C44.0476 21.4022 46.5216 20.1456 49.3099 20.1456ZM40.0625 25.5756L39.4628 26.1121C39.1895 25.8066 39.1895 25.3445 39.4628 25.039L40.0625 25.5756Z" fill="white"/>
<path d="M53.1306 25.5756C53.1306 23.4643 51.4213 21.755 49.31 21.755C48.8656 21.755 48.5054 21.3947 48.5054 20.9503C48.5054 20.5059 48.8656 20.1456 49.31 20.1456C52.3101 20.1456 54.74 22.5755 54.74 25.5756C54.7399 28.5759 52.3065 31.0055 49.31 31.0055C48.8657 31.0055 48.5054 30.6452 48.5054 30.2008C48.5054 29.7564 48.8656 29.3962 49.31 29.3962C51.4184 29.3962 53.1306 27.6864 53.1306 25.5756Z" fill="white"/>
<path d="M43.8833 34.8261C43.8833 32.5064 42.8273 30.3564 41.7132 28.7443C41.1615 27.9459 40.6089 27.2989 40.1951 26.8524C40.1491 26.8027 40.1047 26.7558 40.0624 26.7113C40.0202 26.7557 39.976 26.8028 39.9301 26.8524C39.5163 27.2989 38.9639 27.946 38.4122 28.7443C37.2982 30.3564 36.2421 32.5064 36.2421 34.8261C36.2421 35.2705 35.8818 35.6308 35.4375 35.6308C34.9931 35.6308 34.6329 35.2705 34.6328 34.8261C34.6328 32.0379 35.8894 29.5638 37.088 27.8293C37.6926 26.9544 38.2964 26.2475 38.7498 25.7582C38.9769 25.5132 39.1674 25.322 39.3027 25.1902C39.3703 25.1244 39.4241 25.0732 39.4621 25.0378C39.4811 25.0201 39.4963 25.0061 39.507 24.9963C39.5123 24.9914 39.5167 24.9875 39.5199 24.9847C39.5214 24.9833 39.5227 24.9821 39.5237 24.9812C39.5242 24.9808 39.5249 24.9803 39.5252 24.98L39.5256 24.9796C39.5258 24.9795 39.5261 24.9791 40.0627 25.5787L39.5262 24.979C39.8317 24.7057 40.2938 24.7057 40.5993 24.979L40.0627 25.5787C40.5666 25.0157 40.5975 24.9816 40.5996 24.9796L40.6002 24.98C40.6006 24.9803 40.601 24.9808 40.6015 24.9812C40.6025 24.9822 40.604 24.9832 40.6056 24.9847C40.6088 24.9876 40.6131 24.9914 40.6185 24.9963C40.6292 25.0061 40.6441 25.0201 40.6631 25.0378C40.7011 25.0732 40.7551 25.1243 40.8228 25.1902C40.9581 25.322 41.1486 25.5132 41.3757 25.7582C41.8291 26.2474 42.4326 26.9545 43.0372 27.8293C44.2358 29.5638 45.4927 32.0379 45.4927 34.8261C45.4926 35.2704 45.1323 35.6308 44.688 35.6308C44.2436 35.6308 43.8834 35.2705 43.8833 34.8261Z" fill="white"/>
<path d="M34.6328 34.826C34.6328 34.3816 34.9931 34.0213 35.4375 34.0213C35.8819 34.0213 36.2421 34.3816 36.2421 34.826C36.2421 36.9343 37.9519 38.6466 40.0627 38.6466C42.1739 38.6465 43.8833 36.9372 43.8833 34.826C43.8833 34.3816 44.2436 34.0213 44.688 34.0213C45.1324 34.0213 45.4927 34.3816 45.4927 34.826C45.4927 37.826 43.0627 40.2559 40.0627 40.2559C37.0623 40.2559 34.6328 37.8224 34.6328 34.826Z" fill="white"/>
<path d="M39.2549 32.9431V18.208C39.2549 17.7636 39.6151 17.4033 40.0595 17.4033C40.504 17.4033 40.8642 17.7636 40.8642 18.208V32.9431C40.8642 33.3875 40.5039 33.7478 40.0595 33.7478C39.6152 33.7478 39.2549 33.3875 39.2549 32.9431Z" fill="white"/>
<path d="M47.427 24.7709C47.8714 24.7709 48.2317 25.1312 48.2317 25.5755C48.2317 26.0199 47.8714 26.3802 47.427 26.3802H32.6919C32.2475 26.3802 31.8872 26.0199 31.8872 25.5755C31.8872 25.1311 32.2475 24.7709 32.6919 24.7709H47.427Z" fill="white"/>
<path d="M40.0597 30.1557C42.5892 30.1557 44.6398 28.1051 44.6398 25.5755C44.6398 23.046 42.5892 20.9954 40.0597 20.9954C37.5301 20.9954 35.4795 23.046 35.4795 25.5755C35.4795 28.1051 37.5301 30.1557 40.0597 30.1557Z" fill="#015154"/>
<path d="M43.8351 25.5757C43.8351 23.4905 42.1449 21.8001 40.0598 21.8C37.9746 21.8 36.2841 23.4905 36.2841 25.5757C36.2842 27.6607 37.9747 29.351 40.0598 29.351C42.1448 29.3509 43.835 27.6607 43.8351 25.5757ZM45.4444 25.5757C45.4444 28.5495 43.0336 30.9602 40.0598 30.9603C37.0859 30.9603 34.6749 28.5495 34.6748 25.5757C34.6748 22.6017 37.0858 20.1907 40.0598 20.1907C43.0337 20.1907 45.4444 22.6017 45.4444 25.5757Z" fill="white"/>
</svg>
