<svg width="87" height="87" viewBox="0 0 87 87" fill="none" xmlns="http://www.w3.org/2000/svg">
<path d="M66.7036 0H20.2003C9.044 0 0 9.044 0 20.2003V66.7036C0 77.86 9.044 86.904 20.2003 86.904H66.7036C77.86 86.904 86.904 77.86 86.904 66.7036V20.2003C86.904 9.044 77.86 0 66.7036 0Z" fill="#015154"/>
<path d="M42.9046 10.7825C43.1248 10.7825 43.3355 10.8727 43.4874 11.0321L54.5273 22.6193C54.7494 22.8523 54.8112 23.1954 54.6845 23.4912C54.5577 23.7871 54.2665 23.9791 53.9446 23.9791H31.8647C31.5428 23.9791 31.2518 23.7871 31.1251 23.4912C30.9983 23.1953 31.0602 22.8524 31.2822 22.6193L42.3222 11.0321L42.3816 10.9755C42.5266 10.8515 42.712 10.7825 42.9046 10.7825ZM33.7427 22.3697H52.0665L42.9046 12.7537L33.7427 22.3697Z" fill="white"/>
<path d="M52.1425 22.3698C52.5869 22.3698 52.9472 22.73 52.9472 23.1744V31.8648C52.9472 32.3092 52.5869 32.6695 52.1425 32.6695H34.7617C34.3173 32.6695 33.957 32.3092 33.957 31.8648V23.1744C33.957 22.73 34.3173 22.3698 34.7617 22.3698H52.1425ZM35.5664 31.0602H51.3378V23.9791H35.5664V31.0602Z" fill="white"/>
<path d="M52.1422 36.8538C52.5584 36.8538 52.9057 37.1711 52.9434 37.5855L55.8402 69.4503C55.8805 69.8929 55.5545 70.2842 55.1119 70.3244C54.6694 70.3647 54.2781 70.0387 54.2378 69.5961L51.4076 38.4631H35.496L32.6658 69.5961C32.6256 70.0387 32.2343 70.3647 31.7917 70.3244C31.3492 70.2842 31.0232 69.8929 31.0634 69.4503L33.9602 37.5855L33.9706 37.5091C34.0413 37.1327 34.3712 36.8538 34.7614 36.8538H52.1422Z" fill="white"/>
<path d="M39.5895 31.0601C40.0339 31.0601 40.3942 31.4204 40.3942 31.8648V37.6584C40.3942 38.1028 40.0339 38.4631 39.5895 38.4631H31.8647C31.4203 38.4631 31.0601 38.1028 31.0601 37.6584V31.8648C31.0601 31.4204 31.4203 31.0601 31.8647 31.0601H39.5895ZM32.6694 36.8537H38.7849V32.6695H32.6694V36.8537Z" fill="white"/>
<path d="M55.0392 31.0601C55.4836 31.0601 55.8439 31.4204 55.8439 31.8648V37.6584C55.8439 38.1028 55.4836 38.4631 55.0392 38.4631H47.3144C46.87 38.4631 46.5098 38.1028 46.5098 37.6584V31.8648C46.5098 31.4204 46.87 31.0601 47.3144 31.0601H55.0392ZM48.1191 36.8537H54.2346V32.6695H48.1191V36.8537Z" fill="white"/>
<path d="M46.3488 22.3698C46.7932 22.3698 47.1534 22.73 47.1534 23.1744V31.8648C47.1534 32.3092 46.7932 32.6695 46.3488 32.6695H40.5552C40.1107 32.6695 39.7505 32.3092 39.7505 31.8648V23.1744C39.7505 22.73 40.1107 22.3698 40.5552 22.3698H46.3488ZM41.3598 31.0602H45.5441V23.9791H41.3598V31.0602Z" fill="white"/>
<path d="M25.2666 69.5232C25.2666 69.0788 25.6269 68.7185 26.0713 68.7185C26.5157 68.7185 26.8759 69.0788 26.8759 69.5232C26.8759 72.2781 29.1099 74.5121 31.8649 74.5121C34.6198 74.5121 36.8538 72.2781 36.8538 69.5232C36.8538 69.0788 37.2141 68.7185 37.6585 68.7185C38.1029 68.7185 38.4631 69.0788 38.4631 69.5232C38.4631 73.1669 35.5086 76.1214 31.8649 76.1214C28.2211 76.1214 25.2666 73.1669 25.2666 69.5232Z" fill="white"/>
<path d="M36.8535 69.5232C36.8535 69.0788 37.2138 68.7185 37.6582 68.7185C38.1026 68.7185 38.4628 69.0788 38.4628 69.5232C38.4628 72.2781 40.6968 74.5121 43.4518 74.5121C46.2067 74.5121 48.4407 72.2781 48.4407 69.5232C48.4407 69.0788 48.801 68.7185 49.2454 68.7185C49.6898 68.7185 50.05 69.0788 50.05 69.5232C50.05 73.1669 47.0955 76.1214 43.4518 76.1214C39.808 76.1214 36.8535 73.1669 36.8535 69.5232Z" fill="white"/>
<path d="M48.4409 69.5232C48.4409 69.0788 48.8012 68.7185 49.2456 68.7185C49.69 68.7185 50.0503 69.0788 50.0503 69.5232C50.0503 72.2781 52.2842 74.5121 55.0392 74.5121C57.7941 74.5121 60.0281 72.2781 60.0281 69.5232C60.0281 69.0788 60.3884 68.7185 60.8328 68.7185C61.2772 68.7185 61.6375 69.0788 61.6375 69.5232C61.6375 73.1669 58.6829 76.1214 55.0392 76.1214C51.3954 76.1214 48.4409 73.1669 48.4409 69.5232Z" fill="white"/>
<path d="M67.3734 19.5861C67.7552 19.3589 68.249 19.4841 68.4764 19.8658C68.7037 20.2477 68.5785 20.7418 68.1966 20.9691L61.2444 25.1081C60.8626 25.3355 60.3685 25.2102 60.1412 24.8284C59.9139 24.4466 60.0392 23.9528 60.4209 23.7254L67.3734 19.5861Z" fill="white"/>
<path d="M60.1412 30.2106C60.3686 29.8288 60.8626 29.7035 61.2445 29.9309L68.1967 34.0702C68.5785 34.2975 68.7037 34.7913 68.4764 35.1732C68.2491 35.555 67.7553 35.6802 67.3735 35.4529L60.421 31.3139C60.0391 31.0865 59.9139 30.5925 60.1412 30.2106Z" fill="white"/>
<path d="M69.5234 26.7149C69.9678 26.7149 70.3281 27.0752 70.3281 27.5196C70.3281 27.964 69.9678 28.3242 69.5234 28.3242H60.833C60.3886 28.3242 60.0283 27.964 60.0283 27.5196C60.0283 27.0752 60.3886 26.7149 60.833 26.7149H69.5234Z" fill="white"/>
<path d="M18.4273 19.8658C18.6547 19.484 19.1488 19.3588 19.5306 19.5861L26.4828 23.7254C26.8646 23.9527 26.9899 24.4465 26.7626 24.8284C26.5352 25.2102 26.0415 25.3355 25.6596 25.1081L18.7071 20.9691C18.3253 20.7418 18.2 20.2477 18.4273 19.8658Z" fill="white"/>
<path d="M25.6595 29.9309C26.0413 29.7036 26.5351 29.8289 26.7625 30.2106C26.9898 30.5925 26.8646 31.0866 26.4828 31.3139L19.5306 35.4529C19.1487 35.6803 18.6546 35.555 18.4273 35.1732C18.2 34.7914 18.3253 34.2976 18.707 34.0702L25.6595 29.9309Z" fill="white"/>
<path d="M26.0712 26.7149C26.5156 26.7149 26.8759 27.0752 26.8759 27.5196C26.8759 27.964 26.5156 28.3242 26.0712 28.3242H17.3808C16.9364 28.3242 16.5762 27.964 16.5762 27.5196C16.5762 27.0752 16.9364 26.7149 17.3808 26.7149H26.0712Z" fill="white"/>
<path d="M51.8878 39.7917C52.3094 39.6512 52.7653 39.879 52.9059 40.3006C53.0464 40.7221 52.8186 41.1781 52.397 41.3187L34.292 47.3537C33.8704 47.4942 33.4145 47.2663 33.2739 46.8448C33.1334 46.4232 33.3613 45.9673 33.7828 45.8267L51.8878 39.7917Z" fill="white"/>
<path d="M51.8877 48.4821C52.3093 48.3416 52.7653 48.5695 52.9058 48.991C53.0463 49.4126 52.8185 49.8685 52.3969 50.0091L35.0161 55.8027C34.5946 55.9432 34.1386 55.7153 33.998 55.2938C33.8575 54.8722 34.0854 54.4163 34.5069 54.2757L51.8877 48.4821Z" fill="white"/>
<path d="M52.7701 48.1892C53.1916 48.0487 53.6473 48.2766 53.7879 48.6981C53.9284 49.1196 53.7006 49.5756 53.279 49.7161L33.3877 56.3465C32.9661 56.487 32.5102 56.2592 32.3696 55.8376C32.2291 55.416 32.457 54.9604 32.8785 54.8198L52.7701 48.1892Z" fill="white"/>
<path d="M51.8877 57.1725C52.3093 57.032 52.7653 57.2598 52.9058 57.6814C53.0463 58.1029 52.8185 58.5589 52.3969 58.6995L35.0161 64.4931C34.5946 64.6336 34.1386 64.4057 33.998 63.9842C33.8575 63.5626 34.0854 63.1067 34.5069 62.9661L51.8877 57.1725Z" fill="white"/>
<path d="M53.681 56.5738C54.1026 56.4334 54.5582 56.6612 54.6988 57.0827C54.8394 57.5043 54.6115 57.9602 54.1899 58.1008L33.2237 65.0917C32.8021 65.2322 32.3461 65.0044 32.2056 64.5828C32.065 64.1612 32.2929 63.7056 32.7145 63.565L53.681 56.5738Z" fill="white"/>
</svg>
